<svg width="16" height="16" viewBox="0 0 16 16" fill="none" xmlns="http://www.w3.org/2000/svg">
<path d="M11.6934 2.28667V1.29333C11.6798 1.18002 11.6251 1.07563 11.5397 0.999897C11.4543 0.924165 11.3442 0.882344 11.23 0.882344C11.1159 0.882344 11.0057 0.924165 10.9204 0.999897C10.835 1.07563 10.7803 1.18002 10.7667 1.29333V2.14H10.5534H8.59337V1.29333C8.59337 1.16957 8.54421 1.05087 8.45669 0.96335C8.36917 0.875833 8.25047 0.826667 8.12671 0.826667C8.00294 0.826667 7.88424 0.875833 7.79672 0.96335C7.70921 1.05087 7.66004 1.16957 7.66004 1.29333V2.12667H5.44671H5.23337V1.29333C5.21976 1.18002 5.16509 1.07563 5.07971 0.999897C4.99434 0.924165 4.88417 0.882344 4.77004 0.882344C4.65592 0.882344 4.54575 0.924165 4.46037 0.999897C4.37499 1.07563 4.32032 1.18002 4.30671 1.29333V2.28667C3.45047 2.53364 2.6976 3.05201 2.16137 3.76377C1.62515 4.47553 1.33457 5.34219 1.33337 6.23333V11.06C1.33691 12.1515 1.77345 13.1971 2.54716 13.967C3.32087 14.737 4.3685 15.1684 5.46004 15.1667H10.5667C11.6536 15.1614 12.6944 14.7268 13.4624 13.9576C14.2303 13.1884 14.6632 12.1469 14.6667 11.06V6.23333C14.6655 5.34219 14.3749 4.47553 13.8387 3.76377C13.3025 3.05201 12.5496 2.53364 11.6934 2.28667ZM4.30671 3.26667V3.80667C4.32032 3.91998 4.37499 4.02437 4.46037 4.1001C4.54575 4.17584 4.65592 4.21766 4.77004 4.21766C4.88417 4.21766 4.99434 4.17584 5.07971 4.1001C5.16509 4.02437 5.21976 3.91998 5.23337 3.80667V3.07333C5.30671 3.07333 5.37337 3.07333 5.44671 3.07333H7.66004V3.80667C7.66004 3.93043 7.70921 4.04913 7.79672 4.13665C7.88424 4.22417 8.00294 4.27333 8.12671 4.27333C8.25047 4.27333 8.36917 4.22417 8.45669 4.13665C8.54421 4.04913 8.59337 3.93043 8.59337 3.80667V3.05333H10.5534C10.6267 3.05333 10.6934 3.05333 10.7667 3.05333V3.78667C10.7803 3.89998 10.835 4.00437 10.9204 4.0801C11.0057 4.15583 11.1159 4.19766 11.23 4.19766C11.3442 4.19766 11.4543 4.15583 11.5397 4.0801C11.6251 4.00437 11.6798 3.89998 11.6934 3.78667V3.26667C12.2173 3.47046 12.6781 3.80895 13.0293 4.24792C13.3805 4.68689 13.6096 5.21079 13.6934 5.76667H2.29337C2.3784 5.20932 2.60947 4.68442 2.96309 4.24531C3.31672 3.80621 3.7803 3.46855 4.30671 3.26667ZM10.5534 14.24H5.44671C4.60093 14.2418 3.789 13.9079 3.18907 13.3118C2.58915 12.7156 2.25024 11.9058 2.24671 11.06V6.66667H13.7534V11.0333C13.7551 11.4544 13.6736 11.8716 13.5135 12.261C13.3534 12.6504 13.1179 13.0043 12.8204 13.3024C12.523 13.6004 12.1696 13.8367 11.7805 13.9976C11.3915 14.1585 10.9744 14.2409 10.5534 14.24ZM6.39337 9.22667C6.39736 9.34215 6.36676 9.45619 6.3055 9.55416C6.24424 9.65214 6.15511 9.72958 6.04954 9.77656C5.94397 9.82354 5.82678 9.83792 5.71298 9.81785C5.59919 9.79778 5.49398 9.74418 5.41085 9.66392C5.32773 9.58366 5.27047 9.4804 5.24642 9.36738C5.22237 9.25436 5.23263 9.13673 5.27588 9.02958C5.31913 8.92243 5.3934 8.83064 5.48916 8.76598C5.58493 8.70132 5.69782 8.66674 5.81337 8.66667C5.9638 8.66658 6.10837 8.72493 6.21658 8.82941C6.3248 8.9339 6.38819 9.07633 6.39337 9.22667ZM8.56671 9.22667C8.57201 9.34453 8.54164 9.46125 8.47959 9.56159C8.41753 9.66193 8.32666 9.74123 8.21884 9.78914C8.11103 9.83705 7.99127 9.85133 7.87521 9.83013C7.75915 9.80893 7.65218 9.75323 7.56826 9.6703C7.48434 9.58737 7.42738 9.48106 7.4048 9.36526C7.38223 9.24946 7.3951 9.12954 7.44172 9.02116C7.48835 8.91278 7.56657 8.82098 7.66617 8.75774C7.76577 8.6945 7.88212 8.66276 8.00004 8.66667C8.14815 8.66999 8.28937 8.72985 8.39474 8.83398C8.50011 8.93811 8.56164 9.07861 8.56671 9.22667ZM10.7534 9.22667C10.756 9.34351 10.7237 9.45849 10.6606 9.55685C10.5975 9.65521 10.5064 9.73247 10.3991 9.77872C10.2917 9.82498 10.173 9.83813 10.0582 9.81647C9.94331 9.79482 9.83755 9.73936 9.75443 9.65719C9.67131 9.57503 9.61462 9.46991 9.59164 9.35531C9.56866 9.24072 9.58044 9.12187 9.62545 9.01401C9.67046 8.90615 9.74667 8.8142 9.84429 8.74994C9.94191 8.68567 10.0565 8.65203 10.1734 8.65333C10.3261 8.65332 10.4726 8.71351 10.5812 8.82085C10.6897 8.92818 10.7516 9.074 10.7534 9.22667ZM6.38671 11.38C6.38584 11.4553 6.37014 11.5297 6.34052 11.5989C6.3109 11.6681 6.26794 11.7308 6.21408 11.7835C6.16022 11.8361 6.09652 11.8776 6.02663 11.9056C5.95673 11.9336 5.882 11.9475 5.80671 11.9467C5.69332 11.9453 5.58288 11.9104 5.48934 11.8463C5.3958 11.7822 5.32337 11.6918 5.2812 11.5866C5.23903 11.4813 5.22902 11.3659 5.25244 11.255C5.27585 11.144 5.33164 11.0425 5.41275 10.9633C5.49385 10.884 5.59663 10.8306 5.7081 10.8098C5.81956 10.789 5.93469 10.8017 6.03894 10.8463C6.14319 10.8909 6.23188 10.9654 6.29378 11.0604C6.35568 11.1554 6.38802 11.2666 6.38671 11.38ZM8.56004 11.38C8.56269 11.4966 8.53055 11.6113 8.46772 11.7095C8.40489 11.8077 8.31421 11.885 8.20727 11.9314C8.10034 11.9779 7.98198 11.9914 7.86731 11.9703C7.75265 11.9492 7.64687 11.8944 7.56349 11.8129C7.4801 11.7314 7.42289 11.6269 7.39915 11.5128C7.37541 11.3986 7.38622 11.28 7.43021 11.172C7.47419 11.064 7.54935 10.9716 7.6461 10.9065C7.74284 10.8415 7.85678 10.8067 7.97337 10.8067C8.04978 10.8049 8.12577 10.8184 8.19688 10.8464C8.26798 10.8744 8.33277 10.9164 8.38743 10.9698C8.44209 11.0232 8.48552 11.087 8.51516 11.1575C8.5448 11.2279 8.56006 11.3036 8.56004 11.38ZM10.7467 11.38C10.7494 11.4966 10.7172 11.6113 10.6544 11.7095C10.5916 11.8077 10.5009 11.885 10.3939 11.9314C10.287 11.9779 10.1686 11.9914 10.054 11.9703C9.93931 11.9492 9.83354 11.8944 9.75015 11.8129C9.66677 11.7314 9.60955 11.6269 9.58581 11.5128C9.56208 11.3986 9.57289 11.28 9.61687 11.172C9.66086 11.064 9.73602 10.9716 9.83276 10.9065C9.92951 10.8415 10.0434 10.8067 10.16 10.8067C10.2364 10.8049 10.3124 10.8184 10.3835 10.8464C10.4546 10.8744 10.5194 10.9164 10.5741 10.9698C10.6288 11.0232 10.6722 11.087 10.7018 11.1575C10.7315 11.2279 10.7467 11.3036 10.7467 11.38Z" fill="#7E8299"/>
</svg>
