<svg width="14" height="16" viewBox="0 0 14 16" fill="none" xmlns="http://www.w3.org/2000/svg">
<path d="M10.6934 2.28667V1.29333C10.6798 1.18002 10.6251 1.07563 10.5397 0.999897C10.4543 0.924165 10.3442 0.882344 10.23 0.882344C10.1159 0.882344 10.0057 0.924165 9.92037 0.999897C9.83499 1.07563 9.78032 1.18002 9.76671 1.29333V2.14H9.55337H7.59337V1.29333C7.59337 1.16957 7.54421 1.05087 7.45669 0.96335C7.36917 0.875833 7.25047 0.826667 7.12671 0.826667C7.00294 0.826667 6.88424 0.875833 6.79672 0.96335C6.70921 1.05087 6.66004 1.16957 6.66004 1.29333V2.12667H4.44671H4.23337V1.29333C4.21976 1.18002 4.16509 1.07563 4.07971 0.999897C3.99434 0.924165 3.88417 0.882344 3.77004 0.882344C3.65592 0.882344 3.54575 0.924165 3.46037 0.999897C3.37499 1.07563 3.32032 1.18002 3.30671 1.29333V2.28667C2.45047 2.53364 1.6976 3.05201 1.16137 3.76377C0.625147 4.47553 0.334574 5.34219 0.333374 6.23333V11.06C0.336905 12.1515 0.773449 13.1971 1.54716 13.967C2.32087 14.737 3.3685 15.1684 4.46004 15.1667H9.56671C10.6536 15.1614 11.6944 14.7268 12.4624 13.9576C13.2303 13.1884 13.6632 12.1469 13.6667 11.06V6.23333C13.6655 5.34219 13.3749 4.47553 12.8387 3.76377C12.3025 3.05201 11.5496 2.53364 10.6934 2.28667ZM3.30671 3.26667V3.80667C3.32032 3.91998 3.37499 4.02437 3.46037 4.1001C3.54575 4.17584 3.65592 4.21766 3.77004 4.21766C3.88417 4.21766 3.99434 4.17584 4.07971 4.1001C4.16509 4.02437 4.21976 3.91998 4.23337 3.80667V3.07333C4.30671 3.07333 4.37337 3.07333 4.44671 3.07333H6.66004V3.80667C6.66004 3.93043 6.70921 4.04913 6.79672 4.13665C6.88424 4.22417 7.00294 4.27333 7.12671 4.27333C7.25047 4.27333 7.36917 4.22417 7.45669 4.13665C7.54421 4.04913 7.59337 3.93043 7.59337 3.80667V3.05333H9.55337C9.62671 3.05333 9.69337 3.05333 9.76671 3.05333V3.78667C9.78032 3.89998 9.83499 4.00437 9.92037 4.0801C10.0057 4.15583 10.1159 4.19766 10.23 4.19766C10.3442 4.19766 10.4543 4.15583 10.5397 4.0801C10.6251 4.00437 10.6798 3.89998 10.6934 3.78667V3.26667C11.2173 3.47046 11.6781 3.80895 12.0293 4.24792C12.3805 4.68689 12.6096 5.21079 12.6934 5.76667H1.29337C1.3784 5.20932 1.60947 4.68442 1.96309 4.24531C2.31672 3.80621 2.7803 3.46855 3.30671 3.26667ZM9.55337 14.24H4.44671C3.60093 14.2418 2.789 13.9079 2.18907 13.3118C1.58915 12.7156 1.25024 11.9058 1.24671 11.06V6.66667H12.7534V11.0333C12.7551 11.4544 12.6736 11.8716 12.5135 12.261C12.3534 12.6504 12.1179 13.0043 11.8204 13.3024C11.523 13.6004 11.1696 13.8367 10.7805 13.9976C10.3915 14.1585 9.97441 14.2409 9.55337 14.24ZM5.39337 9.22667C5.39736 9.34215 5.36676 9.45619 5.3055 9.55416C5.24424 9.65214 5.15511 9.72958 5.04954 9.77656C4.94397 9.82354 4.82678 9.83792 4.71298 9.81785C4.59919 9.79778 4.49398 9.74418 4.41085 9.66392C4.32773 9.58366 4.27047 9.4804 4.24642 9.36738C4.22237 9.25436 4.23263 9.13673 4.27588 9.02958C4.31913 8.92243 4.3934 8.83064 4.48916 8.76598C4.58493 8.70132 4.69782 8.66674 4.81337 8.66667C4.9638 8.66658 5.10837 8.72493 5.21658 8.82941C5.3248 8.9339 5.38819 9.07633 5.39337 9.22667ZM7.56671 9.22667C7.57201 9.34453 7.54164 9.46125 7.47959 9.56159C7.41753 9.66193 7.32666 9.74123 7.21884 9.78914C7.11103 9.83705 6.99127 9.85133 6.87521 9.83013C6.75915 9.80893 6.65218 9.75323 6.56826 9.6703C6.48434 9.58737 6.42738 9.48106 6.4048 9.36526C6.38223 9.24946 6.3951 9.12954 6.44172 9.02116C6.48835 8.91278 6.56657 8.82098 6.66617 8.75774C6.76577 8.6945 6.88212 8.66276 7.00004 8.66667C7.14815 8.66999 7.28937 8.72985 7.39474 8.83398C7.50011 8.93811 7.56164 9.07861 7.56671 9.22667ZM9.75337 9.22667C9.75602 9.34351 9.72371 9.45849 9.66058 9.55685C9.59745 9.65521 9.50638 9.73247 9.39905 9.77872C9.29172 9.82498 9.17302 9.83813 9.05817 9.81647C8.94331 9.79482 8.83755 9.73936 8.75443 9.65719C8.67131 9.57503 8.61462 9.46991 8.59164 9.35531C8.56866 9.24072 8.58044 9.12187 8.62545 9.01401C8.67046 8.90615 8.74667 8.8142 8.84429 8.74994C8.94191 8.68567 9.05651 8.65203 9.17337 8.65333C9.32605 8.65332 9.47258 8.71351 9.58116 8.82085C9.68974 8.92818 9.75162 9.074 9.75337 9.22667ZM5.38671 11.38C5.38584 11.4553 5.37014 11.5297 5.34052 11.5989C5.3109 11.6681 5.26794 11.7308 5.21408 11.7835C5.16022 11.8361 5.09652 11.8776 5.02663 11.9056C4.95673 11.9336 4.882 11.9475 4.80671 11.9467C4.69332 11.9453 4.58288 11.9104 4.48934 11.8463C4.3958 11.7822 4.32337 11.6918 4.2812 11.5866C4.23903 11.4813 4.22902 11.3659 4.25244 11.255C4.27585 11.144 4.33164 11.0425 4.41275 10.9633C4.49385 10.884 4.59663 10.8306 4.7081 10.8098C4.81956 10.789 4.93469 10.8017 5.03894 10.8463C5.14319 10.8909 5.23188 10.9654 5.29378 11.0604C5.35568 11.1554 5.38802 11.2666 5.38671 11.38ZM7.56004 11.38C7.56269 11.4966 7.53055 11.6113 7.46772 11.7095C7.40489 11.8077 7.31421 11.885 7.20727 11.9314C7.10034 11.9779 6.98198 11.9914 6.86731 11.9703C6.75265 11.9492 6.64687 11.8944 6.56349 11.8129C6.4801 11.7314 6.42289 11.6269 6.39915 11.5128C6.37541 11.3986 6.38622 11.28 6.43021 11.172C6.47419 11.064 6.54935 10.9716 6.6461 10.9065C6.74284 10.8415 6.85678 10.8067 6.97337 10.8067C7.04978 10.8049 7.12577 10.8184 7.19688 10.8464C7.26798 10.8744 7.33277 10.9164 7.38743 10.9698C7.44209 11.0232 7.48552 11.087 7.51516 11.1575C7.5448 11.2279 7.56006 11.3036 7.56004 11.38ZM9.74671 11.38C9.74936 11.4966 9.71722 11.6113 9.65438 11.7095C9.59155 11.8077 9.50088 11.885 9.39394 11.9314C9.287 11.9779 9.16865 11.9914 9.05398 11.9703C8.93931 11.9492 8.83354 11.8944 8.75015 11.8129C8.66677 11.7314 8.60955 11.6269 8.58581 11.5128C8.56208 11.3986 8.57289 11.28 8.61687 11.172C8.66086 11.064 8.73602 10.9716 8.83276 10.9065C8.92951 10.8415 9.04345 10.8067 9.16004 10.8067C9.23645 10.8049 9.31244 10.8184 9.38354 10.8464C9.45465 10.8744 9.51944 10.9164 9.5741 10.9698C9.62875 11.0232 9.67218 11.087 9.70183 11.1575C9.73147 11.2279 9.74673 11.3036 9.74671 11.38Z" fill="#7E8299"/>
</svg>
