<svg width="24" height="20" viewBox="0 0 24 20" fill="none" xmlns="http://www.w3.org/2000/svg">
<path d="M9.62476 4.87358H9.49976C9.56851 4.87358 9.62476 4.81733 9.62476 4.74858V4.87358H14.3748V4.74858C14.3748 4.81733 14.431 4.87358 14.4998 4.87358H14.3748V5.99858H15.4998V4.74858C15.4998 4.19702 15.0513 3.74858 14.4998 3.74858H9.49976C8.94819 3.74858 8.49976 4.19702 8.49976 4.74858V5.99858H9.62476V4.87358ZM17.4998 5.99858H6.49976C6.22319 5.99858 5.99976 6.22202 5.99976 6.49858V6.99858C5.99976 7.06733 6.05601 7.12358 6.12476 7.12358H7.06851L7.45444 15.2955C7.47944 15.8283 7.92007 16.2486 8.45288 16.2486H15.5466C16.081 16.2486 16.5201 15.8298 16.5451 15.2955L16.931 7.12358H17.8748C17.9435 7.12358 17.9998 7.06733 17.9998 6.99858V6.49858C17.9998 6.22202 17.7763 5.99858 17.4998 5.99858ZM15.4263 15.1236H8.57319L8.19507 7.12358H15.8044L15.4263 15.1236Z" fill="black" fill-opacity="0.45"/>
</svg>
