<svg width="30" height="30" viewBox="0 0 30 30" fill="none" xmlns="http://www.w3.org/2000/svg">
<path d="M15.35 13.5917C14.4128 13.5818 13.4994 13.2949 12.7248 12.767C11.9503 12.2391 11.3493 11.4938 10.9974 10.625C10.6455 9.75626 10.5586 8.80281 10.7475 7.88472C10.9364 6.96663 11.3927 6.12494 12.0589 5.46563C12.7251 4.80633 13.5716 4.35887 14.4916 4.17961C15.4116 4.00034 16.3641 4.09728 17.2291 4.45822C18.0942 4.81916 18.8331 5.42796 19.3528 6.20798C19.8726 6.98799 20.15 7.90434 20.15 8.84167C20.1412 10.1074 19.6311 11.318 18.7314 12.2084C17.8317 13.0987 16.6158 13.5961 15.35 13.5917ZM15.35 5.75833C14.7424 5.76819 14.1513 5.95736 13.6509 6.3021C13.1504 6.64683 12.763 7.13176 12.5373 7.69596C12.3116 8.26016 12.2576 8.87848 12.3822 9.47326C12.5067 10.068 12.8042 10.6127 13.2374 11.039C13.6705 11.4652 14.2199 11.7539 14.8167 11.8689C15.4134 11.9839 16.0307 11.92 16.5912 11.6852C17.1517 11.4504 17.6304 11.0553 17.967 10.5494C18.3036 10.0435 18.4833 9.44934 18.4834 8.84167C18.4746 8.01797 18.14 7.23125 17.5529 6.65348C16.9658 6.07571 16.1738 5.75388 15.35 5.75833Z" fill="white"/>
<path d="M15.35 13.5917C14.4127 13.5818 13.4993 13.2949 12.7248 12.767C11.9503 12.2391 11.3492 11.4938 10.9974 10.625C10.6455 9.75626 10.5586 8.80281 10.7474 7.88472C10.9363 6.96663 11.3926 6.12494 12.0589 5.46563C12.7251 4.80633 13.5715 4.35887 14.4916 4.17961C15.4116 4.00034 16.3641 4.09728 17.2291 4.45822C18.0941 4.81916 18.8331 5.42796 19.3528 6.20798C19.8726 6.98799 20.1499 7.90434 20.15 8.84167C20.1412 10.1074 19.6311 11.318 18.7314 12.2084C17.8317 13.0987 16.6157 13.5961 15.35 13.5917ZM15.35 5.75833C14.7424 5.76819 14.1513 5.95736 13.6508 6.3021C13.1504 6.64683 12.763 7.13176 12.5373 7.69596C12.3115 8.26016 12.2576 8.87848 12.3821 9.47326C12.5067 10.068 12.8042 10.6127 13.2374 11.039C13.6705 11.4652 14.2199 11.7539 14.8166 11.8689C15.4133 11.9839 16.0307 11.92 16.5912 11.6852C17.1517 11.4504 17.6303 11.0553 17.967 10.5494C18.3036 10.0435 18.4833 9.44934 18.4833 8.84167C18.4745 8.01797 18.14 7.23125 17.5529 6.65348C16.9657 6.07571 16.1737 5.75388 15.35 5.75833ZM18.2583 14.7083C14.5621 14.0652 10.757 14.6506 7.425 16.375C7.18848 16.5063 6.99263 16.7002 6.85888 16.9353C6.72513 17.1705 6.65864 17.4379 6.66667 17.7083V20.675C6.66667 20.896 6.75446 21.108 6.91074 21.2643C7.06702 21.4205 7.27899 21.5083 7.5 21.5083C7.72101 21.5083 7.93297 21.4205 8.08925 21.2643C8.24553 21.108 8.33333 20.896 8.33333 20.675V17.8167C11.4231 16.2664 14.9367 15.7745 18.3333 16.4167L18.2583 14.7083Z" fill="white"/>
<path d="M27.5 18.3333H21.9167V17.1C21.9167 16.879 21.8289 16.667 21.6726 16.5107C21.5163 16.3545 21.3044 16.2667 21.0834 16.2667C20.8624 16.2667 20.6504 16.3545 20.4941 16.5107C20.3378 16.667 20.25 16.879 20.25 17.1V18.3333H14.1667C13.9457 18.3333 13.7337 18.4211 13.5775 18.5774C13.4212 18.7337 13.3334 18.9456 13.3334 19.1667V27.5C13.3334 27.721 13.4212 27.933 13.5775 28.0893C13.7337 28.2455 13.9457 28.3333 14.1667 28.3333H27.5C27.7211 28.3333 27.933 28.2455 28.0893 28.0893C28.2456 27.933 28.3334 27.721 28.3334 27.5V19.1667C28.3334 18.9456 28.2456 18.7337 28.0893 18.5774C27.933 18.4211 27.7211 18.3333 27.5 18.3333ZM26.6667 26.6667H15V20H20.25V20.3417C20.25 20.5627 20.3378 20.7746 20.4941 20.9309C20.6504 21.0872 20.8624 21.175 21.0834 21.175C21.3044 21.175 21.5163 21.0872 21.6726 20.9309C21.8289 20.7746 21.9167 20.5627 21.9167 20.3417V20H26.6667V26.6667Z" fill="white"/>
<path d="M18.175 22.85H23.1416V24.0167H18.175V22.85ZM9.03329 10.2C6.72616 10.2386 4.45904 10.8089 2.40829 11.8667C2.18526 11.9845 1.99844 12.1607 1.8678 12.3764C1.73717 12.5922 1.66763 12.8394 1.66663 13.0917V15.675C1.66663 15.896 1.75442 16.108 1.9107 16.2643C2.06698 16.4205 2.27895 16.5083 2.49996 16.5083C2.72097 16.5083 2.93293 16.4205 3.08921 16.2643C3.2455 16.108 3.33329 15.896 3.33329 15.675V13.2583C5.29271 12.283 7.46209 11.8051 9.64996 11.8667C9.36371 11.3444 9.15592 10.7828 9.03329 10.2ZM27.5916 11.8583C25.7523 10.8935 23.7309 10.3257 21.6583 10.1917C21.5362 10.7734 21.3314 11.3347 21.05 11.8583C23.0025 11.9051 24.9206 12.3832 26.6666 13.2583V15.675C26.6666 15.896 26.7544 16.108 26.9107 16.2643C27.067 16.4205 27.2789 16.5083 27.5 16.5083C27.721 16.5083 27.9329 16.4205 28.0892 16.2643C28.2455 16.108 28.3333 15.896 28.3333 15.675V13.0917C28.3338 12.838 28.265 12.5891 28.1343 12.3717C28.0035 12.1543 27.8159 11.9768 27.5916 11.8583ZM8.88329 8.84166V8.28333C8.23047 8.19597 7.6365 7.86019 7.22502 7.34591C6.81354 6.83163 6.61625 6.17846 6.67424 5.52238C6.73222 4.86629 7.04101 4.25785 7.53631 3.82371C8.03161 3.38957 8.67527 3.16318 9.33329 3.19166C10.0177 3.19042 10.6756 3.45655 11.1666 3.93333C11.5999 3.57598 12.0757 3.27368 12.5833 3.03333C12.0163 2.38138 11.2651 1.91653 10.4286 1.70005C9.59215 1.48358 8.70973 1.52564 7.89766 1.8207C7.08559 2.11575 6.38198 2.64995 5.87957 3.35287C5.37716 4.0558 5.09954 4.89447 5.08329 5.75833C5.10078 6.81563 5.51179 7.82843 6.23604 8.59891C6.9603 9.36939 7.94576 9.84221 8.99996 9.925C8.92927 9.56802 8.89023 9.2055 8.88329 8.84166ZM20.6416 1.525C20.069 1.52512 19.502 1.63942 18.9741 1.8612C18.4461 2.08298 17.9676 2.4078 17.5666 2.81666C18.13 3.0208 18.6627 3.30119 19.15 3.65C19.539 3.37994 19.994 3.22052 20.4666 3.18875C20.9391 3.15698 21.4114 3.25405 21.8331 3.4696C22.2547 3.68515 22.61 4.0111 22.861 4.4127C23.112 4.8143 23.2493 5.27649 23.2583 5.75C23.253 6.23636 23.1102 6.71129 22.8462 7.11981C22.5822 7.52833 22.2079 7.85373 21.7666 8.05833C21.8002 8.3153 21.8169 8.57418 21.8166 8.83333C21.8144 9.1683 21.7865 9.50261 21.7333 9.83333C22.6411 9.59994 23.4463 9.07298 24.0236 8.33446C24.6008 7.59595 24.9177 6.68731 24.925 5.75C24.914 4.62275 24.4573 3.54567 23.6547 2.75403C22.8522 1.96239 21.7689 1.52054 20.6416 1.525Z" fill="white"/>
</svg>
