<svg width="563" height="809" viewBox="0 0 563 809" fill="none" xmlns="http://www.w3.org/2000/svg">
<g clip-path="url(#clip0_224_2580)">
<mask id="mask0_224_2580" style="mask-type:luminance" maskUnits="userSpaceOnUse" x="-313" y="-61" width="877" height="876">
<path d="M563 -60.6318H-312.501V814.538H563V-60.6318Z" fill="white"/>
</mask>
<g mask="url(#mask0_224_2580)">
<path d="M310.733 25.7825C307.231 27.2703 261.162 4.7784 238.241 78.4327C235.195 88.2522 236.981 99.0693 233.269 108.766C228.874 120.213 219.103 129.28 211.906 139.537C205.799 148.164 201.515 157.945 199.318 168.283C197.12 178.62 197.054 189.297 199.124 199.661C201.716 212.106 207.476 224.586 204.675 237.014C199.912 258.175 172.842 269.675 163.929 289.751C156.47 306.607 163.299 325.528 170.233 342.262C177.34 360.13 178.512 379.809 173.577 398.395C178.83 401.126 184.836 402.753 192.838 405.011C262.248 412.188 332.918 381.854 401.102 395.192C418.122 398.518 435.457 404.539 452.424 401.003C471.283 397.047 485.693 380.192 484.853 362.916C483.96 343.049 465.767 326.158 465.592 306.24C465.592 294.337 472.053 283.275 474.995 271.653C480.65 249.389 472.14 224.709 453.44 205.875C442.689 195.951 443.704 180.11 446.874 166.597C450.043 153.085 454.543 138.592 448.625 125.902C444.177 116.345 434.616 109.449 428.943 100.4C422.517 90.0375 421.799 77.6451 417.544 66.4779C413.289 55.3108 367.973 0.822659 310.733 25.7825Z" fill="#03004F"/>
<path d="M308.212 26.5177C297.496 16.9958 280.616 16.0156 267.571 22.2118C254.526 28.408 245.088 40.3628 239.555 53.5254C234.022 66.688 232.096 80.9707 230.8 95.131C229.504 109.291 228.559 123.574 225.074 137.384" stroke="#03004F" stroke-linecap="round" stroke-linejoin="round"/>
<path d="M315.986 23.9621C324.561 19.2343 333.999 16.2788 343.739 15.2715C353.479 14.2641 363.323 15.2255 372.684 18.0985C381.965 21.0361 390.549 25.8339 397.913 32.1988C405.277 38.5638 411.265 46.3623 415.513 55.1182C421.519 67.7557 423.533 81.8109 426.86 95.3761C430.187 108.941 435.23 122.786 445.701 132.133" stroke="#03004F" stroke-linecap="round" stroke-linejoin="round"/>
<path d="M200.665 255.83C206.566 246.028 205.795 233.6 202.749 222.573C199.702 211.546 194.606 201.149 192.243 189.964C188.755 173.064 191.695 155.471 200.49 140.622C209.245 125.902 223.726 114.577 237.261 113.912C226.419 120.713 216.839 129.342 208.947 139.415C201.33 149.619 196.217 161.889 195.972 174.544C195.727 187.549 200.525 200.046 204.412 212.474C208.299 224.901 211.381 238.344 200.665 255.83Z" stroke="#03004F" stroke-linecap="round" stroke-linejoin="round"/>
<path d="M443.949 158.511C438.696 170.763 444.37 184.958 452.197 195.776C460.023 206.593 470.162 216.027 475.59 228.192C479.466 237.302 480.537 247.36 478.665 257.082C476.794 266.803 472.065 275.746 465.084 282.768" stroke="#03004F" stroke-linecap="round" stroke-linejoin="round"/>
<path d="M449.413 145.016C443.407 157.793 448.222 173.021 455.594 185.099C462.966 197.176 472.876 207.853 478.147 220.91C481.659 229.908 482.858 239.642 481.634 249.222C480.411 258.802 476.804 267.922 471.143 275.749" stroke="#03004F" stroke-linecap="round" stroke-linejoin="round"/>
<path d="M280.669 190.174C287.83 211.056 285.396 234.931 273.069 253.327C276.062 287.94 283.768 321.984 295.972 354.514C298.354 360.885 301.226 367.519 306.671 371.615C313.798 376.866 324.058 376.586 332.096 372.77C340.133 368.954 346.349 362.268 351.777 355.267C373.235 327.568 385.393 293.803 386.517 258.788C377.64 248.697 371.396 236.57 368.341 223.484C365.287 210.399 365.515 196.762 369.007 183.786C344.248 195.776 315.303 198.926 280.669 190.174Z" fill="#FFB2AD"/>
<path d="M304.115 41.6056C291.718 42.5683 280.389 49.6922 272.439 59.109C264.49 68.5258 259.622 80.1131 256.085 91.8228C248.678 116.415 246.787 143.055 253.931 167.718C261.075 192.38 277.867 214.819 301.208 226.179C324.549 237.539 354.474 236.436 375.293 221.016C398.301 203.985 406.811 173.616 407.494 145.296C408.177 116.975 402.066 87.5345 384.013 65.6728C365.96 43.811 335.79 39.1551 304.115 41.6056Z" fill="#FFB2AD"/>
<path d="M398.056 115.54C402.724 113.828 407.826 113.701 412.574 115.178C417.321 116.656 421.45 119.656 424.321 123.714C426.971 127.878 428.257 132.764 428 137.692C427.742 142.621 425.954 147.347 422.885 151.212C419.642 155.004 415.415 157.828 410.67 159.373C405.924 160.917 400.844 161.121 395.989 159.964C399.318 145.397 400.017 130.353 398.056 115.54Z" fill="#FFB2AD"/>
<path d="M408.264 153.767C408.25 153.099 408.436 152.442 408.798 151.88C409.16 151.318 409.681 150.876 410.295 150.611C410.909 150.347 411.588 150.271 412.245 150.394C412.902 150.517 413.508 150.834 413.984 151.302C414.461 151.771 414.786 152.371 414.92 153.026C415.053 153.681 414.989 154.361 414.734 154.979C414.479 155.597 414.045 156.125 413.489 156.495C412.932 156.865 412.277 157.061 411.609 157.058C410.731 157.058 409.888 156.713 409.262 156.097C408.637 155.482 408.278 154.645 408.264 153.767Z" fill="white"/>
<path d="M413.482 122.611C416.445 123.879 418.907 126.086 420.489 128.892C422.072 131.698 422.686 134.947 422.237 138.137" stroke="black" stroke-linecap="round" stroke-linejoin="round"/>
<path d="M419.295 127.197C419.101 130.31 418.513 133.386 417.544 136.352C416.528 139.349 414.414 141.851 411.626 143.353" stroke="black" stroke-linecap="round" stroke-linejoin="round"/>
<path d="M257.573 117.448C252.893 115.717 247.772 115.58 243.007 117.058C238.241 118.537 234.097 121.547 231.22 125.622C228.572 129.788 227.289 134.675 227.55 139.603C227.81 144.532 229.601 149.256 232.673 153.12C235.916 156.912 240.143 159.736 244.889 161.28C249.634 162.825 254.714 163.029 259.569 161.871C256.264 147.3 255.588 132.256 257.573 117.448Z" fill="#FFB2AD"/>
<path d="M245.054 125.639C242.093 126.904 239.631 129.108 238.048 131.911C236.466 134.714 235.851 137.96 236.298 141.147" stroke="black" stroke-linecap="round" stroke-linejoin="round"/>
<path d="M239.223 130.225C239.415 133.333 240.003 136.403 240.974 139.362C241.993 142.358 244.107 144.859 246.892 146.363" stroke="black" stroke-linecap="round" stroke-linejoin="round"/>
<path d="M245.036 155.378C245.025 154.714 245.212 154.063 245.574 153.506C245.935 152.95 246.453 152.513 247.063 152.252C247.673 151.991 248.348 151.917 249 152.04C249.652 152.163 250.253 152.477 250.726 152.943C251.199 153.408 251.523 154.004 251.656 154.653C251.789 155.303 251.726 155.978 251.475 156.592C251.223 157.206 250.795 157.731 250.243 158.101C249.692 158.471 249.044 158.668 248.38 158.668C247.501 158.673 246.655 158.33 246.029 157.713C245.402 157.096 245.045 156.257 245.036 155.378Z" fill="white"/>
<path d="M325.966 109.134C326.574 113.401 326.312 117.748 325.196 121.911C323.813 125.989 320.276 129.665 315.916 129.91C313.342 130.05 310.663 129 308.211 129.683C306.791 130.188 305.577 131.148 304.76 132.415C303.943 133.681 303.568 135.182 303.694 136.684C303.875 138.175 304.356 139.613 305.108 140.913C305.86 142.212 306.868 143.346 308.071 144.246C310.51 146.01 313.172 147.446 315.986 148.516" stroke="black" stroke-linecap="round" stroke-linejoin="round"/>
<path d="M319.82 171.743C321.836 174.057 324.402 175.826 327.282 176.888C330.161 177.949 333.262 178.269 336.297 177.817C339.318 177.323 342.198 176.184 344.739 174.477C347.28 172.771 349.423 170.537 351.023 167.928C354.174 162.673 355.295 156.448 354.175 150.424" stroke="black" stroke-linecap="round" stroke-linejoin="round"/>
<path d="M282.962 112.319C282.962 109.046 285.028 106.403 287.585 106.403C290.141 106.403 292.207 109.046 292.207 112.319C292.207 115.593 290.141 118.236 287.585 118.236C285.028 118.236 282.962 115.593 282.962 112.319Z" fill="black"/>
<path d="M354.508 114.087C354.508 110.814 356.574 108.154 359.13 108.154C361.687 108.154 363.771 110.814 363.771 114.087C363.771 117.36 361.687 120.003 359.13 120.003C356.574 120.003 354.508 117.343 354.508 114.087Z" fill="black"/>
<path d="M380.931 99.1218C374.903 92.2558 366.712 87.6498 357.712 86.0642C356.076 85.6815 354.378 85.6393 352.724 85.9404C351.07 86.2415 349.496 86.8795 348.099 87.8146C347.729 88.0471 347.416 88.3597 347.183 88.7292C346.949 89.0988 346.802 89.516 346.751 89.95C346.735 90.3498 346.817 90.7474 346.992 91.1076C347.166 91.4679 347.426 91.7797 347.749 92.0154C348.326 92.3669 348.983 92.5657 349.658 92.593C360.847 93.9407 372.596 94.2558 380.931 99.1218Z" fill="#03004F"/>
<path d="M265.102 100.89C267.591 96.4044 271.213 92.6495 275.606 89.9992C280 87.3488 285.011 85.8956 290.141 85.7842C291.261 85.7059 292.382 85.9359 293.38 86.4493C293.951 86.7849 294.43 87.2559 294.775 87.8207C295.12 88.3856 295.321 89.0267 295.359 89.6875C295.359 91.6479 293.415 92.173 291.857 92.3655C282.519 93.6695 273.472 96.552 265.102 100.89Z" fill="#03004F"/>
<path opacity="0.69" d="M369.62 150.372C378.952 150.372 386.517 144.557 386.517 137.384C386.517 130.211 378.952 124.397 369.62 124.397C360.288 124.397 352.723 130.211 352.723 137.384C352.723 144.557 360.288 150.372 369.62 150.372Z" fill="#DE8D87"/>
<path d="M361.985 140.22C361.985 139.974 362.083 139.738 362.257 139.564C362.431 139.39 362.667 139.292 362.913 139.292C363.16 139.292 363.396 139.39 363.57 139.564C363.744 139.738 363.841 139.974 363.841 140.22C363.841 140.466 363.744 140.702 363.57 140.876C363.396 141.05 363.16 141.147 362.913 141.147C362.667 141.147 362.431 141.05 362.257 140.876C362.083 140.702 361.985 140.466 361.985 140.22Z" fill="#945848"/>
<path d="M374.015 134.689C374.015 134.568 374.039 134.448 374.086 134.336C374.132 134.225 374.201 134.124 374.287 134.039C374.374 133.954 374.476 133.887 374.589 133.843C374.701 133.798 374.822 133.776 374.943 133.778C375.078 133.74 375.221 133.733 375.359 133.759C375.498 133.785 375.629 133.842 375.741 133.927C375.854 134.012 375.945 134.122 376.008 134.248C376.07 134.374 376.103 134.513 376.103 134.654C376.103 134.795 376.07 134.934 376.008 135.06C375.945 135.186 375.854 135.296 375.741 135.38C375.629 135.465 375.498 135.523 375.359 135.548C375.221 135.574 375.078 135.568 374.943 135.529C374.71 135.534 374.484 135.45 374.311 135.294C374.139 135.137 374.033 134.921 374.015 134.689Z" fill="#945848"/>
<path d="M350.866 128.86C350.863 128.676 350.914 128.495 351.014 128.34C351.114 128.185 351.258 128.064 351.427 127.991C351.596 127.918 351.783 127.897 351.964 127.931C352.146 127.964 352.312 128.051 352.444 128.18C352.576 128.309 352.666 128.475 352.703 128.655C352.74 128.835 352.723 129.023 352.653 129.193C352.584 129.364 352.465 129.51 352.312 129.613C352.159 129.715 351.979 129.77 351.794 129.77C351.673 129.773 351.553 129.751 351.44 129.706C351.328 129.661 351.226 129.595 351.139 129.51C351.053 129.425 350.984 129.324 350.937 129.212C350.89 129.101 350.866 128.981 350.866 128.86Z" fill="#945848"/>
<path d="M364.752 128.86C364.752 128.739 364.776 128.619 364.823 128.508C364.87 128.396 364.938 128.295 365.025 128.21C365.111 128.125 365.214 128.059 365.326 128.014C365.439 127.969 365.559 127.948 365.68 127.95C365.816 127.911 365.958 127.904 366.097 127.93C366.235 127.956 366.366 128.014 366.478 128.098C366.591 128.183 366.682 128.293 366.745 128.419C366.808 128.545 366.841 128.684 366.841 128.825C366.841 128.966 366.808 129.105 366.745 129.231C366.682 129.357 366.591 129.467 366.478 129.552C366.366 129.637 366.235 129.694 366.097 129.72C365.958 129.746 365.816 129.739 365.68 129.7C365.447 129.705 365.221 129.621 365.049 129.465C364.876 129.309 364.77 129.092 364.752 128.86Z" fill="#945848"/>
<path opacity="0.69" d="M278.812 148.586C288.144 148.586 295.709 142.772 295.709 135.599C295.709 128.426 288.144 122.611 278.812 122.611C269.48 122.611 261.915 128.426 261.915 135.599C261.915 142.772 269.48 148.586 278.812 148.586Z" fill="#DE8D87"/>
<path d="M294.781 127.04C294.781 126.919 294.805 126.799 294.852 126.687C294.899 126.576 294.968 126.475 295.054 126.39C295.14 126.305 295.243 126.238 295.355 126.194C295.468 126.149 295.588 126.127 295.709 126.13C295.845 126.091 295.987 126.084 296.126 126.11C296.264 126.136 296.395 126.193 296.508 126.278C296.62 126.363 296.711 126.473 296.774 126.599C296.837 126.725 296.87 126.864 296.87 127.005C296.87 127.146 296.837 127.285 296.774 127.411C296.711 127.537 296.62 127.646 296.508 127.731C296.395 127.816 296.264 127.874 296.126 127.9C295.987 127.925 295.845 127.919 295.709 127.88C295.477 127.885 295.251 127.801 295.078 127.645C294.905 127.488 294.799 127.272 294.781 127.04Z" fill="#945848"/>
<path d="M284.591 137.384C284.591 137.201 284.645 137.021 284.747 136.869C284.849 136.716 284.994 136.597 285.164 136.527C285.333 136.457 285.52 136.439 285.7 136.474C285.88 136.51 286.045 136.599 286.175 136.728C286.305 136.858 286.393 137.023 286.429 137.203C286.465 137.383 286.446 137.57 286.376 137.739C286.306 137.909 286.187 138.054 286.034 138.156C285.882 138.258 285.702 138.312 285.519 138.312C285.273 138.312 285.037 138.214 284.863 138.04C284.689 137.866 284.591 137.63 284.591 137.384Z" fill="#945848"/>
<path d="M277.867 128.86C277.867 128.739 277.891 128.619 277.938 128.508C277.985 128.396 278.054 128.295 278.14 128.21C278.227 128.125 278.329 128.059 278.442 128.014C278.554 127.969 278.674 127.948 278.795 127.95C278.931 127.911 279.073 127.904 279.212 127.93C279.35 127.956 279.481 128.014 279.594 128.098C279.706 128.183 279.798 128.293 279.86 128.419C279.923 128.545 279.956 128.684 279.956 128.825C279.956 128.966 279.923 129.105 279.86 129.231C279.798 129.357 279.706 129.467 279.594 129.552C279.481 129.637 279.35 129.694 279.212 129.72C279.073 129.746 278.931 129.739 278.795 129.7C278.562 129.705 278.336 129.621 278.164 129.465C277.991 129.309 277.885 129.092 277.867 128.86Z" fill="#945848"/>
<path d="M265.364 135.599C265.364 135.478 265.388 135.358 265.435 135.246C265.482 135.135 265.551 135.034 265.637 134.949C265.724 134.864 265.826 134.798 265.939 134.753C266.051 134.708 266.171 134.686 266.292 134.689C266.428 134.65 266.571 134.643 266.709 134.669C266.848 134.695 266.978 134.752 267.091 134.837C267.203 134.922 267.295 135.032 267.357 135.158C267.42 135.284 267.453 135.423 267.453 135.564C267.453 135.705 267.42 135.844 267.357 135.97C267.295 136.096 267.203 136.206 267.091 136.29C266.978 136.375 266.848 136.433 266.709 136.459C266.571 136.484 266.428 136.478 266.292 136.439C266.06 136.444 265.834 136.36 265.661 136.204C265.488 136.047 265.382 135.831 265.364 135.599Z" fill="#945848"/>
<path d="M310.734 35.0243C310.436 43.5485 315.356 51.565 321.765 57.2711C328.174 62.9772 336.036 66.8455 343.617 70.9763C366.608 83.483 387.81 99.0255 406.654 117.185C409.311 104.693 408.708 91.7273 404.903 79.5355C401.022 67.2804 393.594 56.4504 383.558 48.4144C373.262 40.3103 360.55 35.6894 347.732 32.6613C335.633 29.8083 321.905 28.548 310.734 35.0243Z" fill="#03004F"/>
<path d="M313.622 37.5623C315.373 45.7364 310.015 53.8755 303.413 59.074C296.812 64.2725 288.81 67.5281 281.946 72.3941C266.45 83.3862 258.098 101.415 250.428 118.638C248.677 104.04 247.784 89.1098 251.094 74.792C254.403 60.4743 262.545 46.6641 275.485 39.3651C285.483 33.7115 297.53 32.3638 308.982 33.6065C310.746 33.6427 312.459 34.2033 313.902 35.2168C315.233 36.3546 315.723 38.6125 313.622 37.5623Z" fill="#03004F"/>
<path d="M407.494 112.319C409.245 126.795 407.494 133.323 407.144 144.228C407.194 145.1 407.032 145.971 406.671 146.766C406.467 147.158 406.135 147.468 405.731 147.646C405.327 147.825 404.874 147.86 404.447 147.746C405.29 132.604 402.705 117.467 396.883 103.463C400.874 105.825 404.457 108.816 407.494 112.319Z" fill="#03004F"/>
<path d="M259.569 99.5069C253.7 113.1 251.543 128.007 253.318 142.705C253.615 144.261 253.615 145.858 253.318 147.414C253.156 148.196 252.76 148.91 252.181 149.461C251.602 150.011 250.868 150.372 250.079 150.494C249.554 141.813 249.034 133.131 248.52 124.449C247.983 119.543 248.214 114.582 249.203 109.746C250.517 105.02 253.844 99.0868 259.569 99.5069Z" fill="#03004F"/>
<path d="M311.224 27.4978C311.069 33.7701 312.115 40.0142 314.306 45.8939" stroke="black" stroke-linecap="round" stroke-linejoin="round"/>
<path d="M284.468 216.377C299.211 232.13 322.57 234.686 336.35 231.518" stroke="black" stroke-miterlimit="10"/>
<path d="M275.363 249.669C285.788 284.575 298.589 318.728 313.675 351.888C337.31 318.708 359.125 284.269 379.022 248.723C389.704 253.484 418.613 269.36 423.848 279.687C428.908 289.699 441.988 318.474 441.358 329.624C434.932 438.845 438.329 531.596 432.603 629.23C401.996 628.845 336.683 620.916 306.111 621.528C284.503 621.948 264.752 627.847 243.828 631.733C230.783 634.131 219.016 631.138 207.687 626.587C204.447 580.781 201.226 534.852 203.362 488.975C206.426 423.582 220.347 359.205 234.215 295.177C236.386 285.201 238.697 274.873 244.843 266.647C252.18 256.652 262.563 253.939 275.363 249.669Z" fill="#0074D0"/>
<path d="M348.73 377.916L346.278 393.914L411.818 397.625L413.254 383.71L348.73 377.916Z" stroke="black" stroke-miterlimit="10"/>
<path d="M346.278 394.457C345.045 402.17 345.003 410.028 346.156 417.754C347.504 425.613 351.181 433.384 357.712 438.093C364.506 442.959 411.836 463.385 411.836 398.833" stroke="black" stroke-miterlimit="10"/>
<path d="M265.47 252.312C274.225 293.567 293.678 336.888 312.747 374.625L388.04 253.519" stroke="black" stroke-linecap="round" stroke-linejoin="round"/>
<path d="M414.883 597.321C342.508 604.789 268.809 600.355 193.784 584.019C175.661 622.526 167.694 664.919 160.883 706.893C148.206 785.075 138.989 863.723 133.234 942.839C231.494 965.191 332.323 974.175 432.988 969.549C429.609 845.415 424.916 721.298 414.883 597.321Z" fill="#0046AB"/>
<path d="M378.111 247.393C363.788 320.907 319.155 384.585 300.7 457.276C292.662 488.923 290.299 521.671 287.952 554.228C282.226 634.236 273.104 751.614 267.378 831.639C277.131 832.777 306.32 829.977 316.231 829.696C380.265 832.549 426.264 838.151 492.154 823.833C474.942 756.952 459.883 647.994 457.257 579.065C454.35 502.05 469.776 425.788 484.362 350.138C487.076 336.048 489.72 321.24 485.308 307.57C478.899 287.791 459.27 275.136 439.782 267.312C420.293 259.488 396.164 254.937 378.111 247.393Z" fill="white"/>
<path d="M416.371 259.348C421.344 282.686 426.323 305.989 431.308 329.257L394.274 333.265C394.274 333.265 431.045 340.004 432.341 342.524C421.274 365.016 398.896 379.509 378.725 394.702C347.872 417.963 320.204 445.167 296.428 475.62" stroke="black" stroke-linecap="round" stroke-linejoin="round"/>
<path d="M300.753 555.628C300.729 553.93 301.21 552.264 302.136 550.84C303.062 549.416 304.39 548.3 305.953 547.634C307.515 546.967 309.24 546.78 310.909 547.096C312.578 547.413 314.115 548.218 315.325 549.41C316.535 550.602 317.363 552.127 317.703 553.79C318.044 555.454 317.881 557.181 317.237 558.752C316.593 560.323 315.495 561.667 314.085 562.613C312.674 563.559 311.014 564.065 309.315 564.065C308.198 564.074 307.091 563.863 306.056 563.444C305.021 563.025 304.079 562.405 303.283 561.622C302.488 560.838 301.855 559.905 301.421 558.877C300.987 557.848 300.76 556.744 300.753 555.628Z" stroke="black" stroke-linecap="round" stroke-linejoin="round"/>
<path d="M306.303 475.62C306.272 473.917 306.749 472.243 307.673 470.811C308.597 469.38 309.927 468.256 311.493 467.583C313.059 466.91 314.79 466.719 316.465 467.033C318.14 467.348 319.683 468.153 320.898 469.348C322.113 470.543 322.945 472.072 323.287 473.741C323.629 475.41 323.466 477.143 322.819 478.719C322.172 480.296 321.07 481.643 319.653 482.591C318.237 483.538 316.57 484.042 314.866 484.039C312.615 484.053 310.45 483.175 308.845 481.597C307.24 480.019 306.326 477.87 306.303 475.62Z" stroke="black" stroke-linecap="round" stroke-linejoin="round"/>
<path d="M292.19 640.555C292.166 638.857 292.647 637.19 293.573 635.767C294.499 634.343 295.828 633.227 297.39 632.56C298.952 631.894 300.678 631.707 302.347 632.023C304.016 632.339 305.553 633.145 306.762 634.337C307.972 635.529 308.8 637.053 309.141 638.717C309.481 640.38 309.319 642.108 308.674 643.679C308.03 645.25 306.933 646.594 305.522 647.54C304.112 648.486 302.451 648.991 300.753 648.991C298.499 649.005 296.331 648.125 294.726 646.543C293.121 644.962 292.209 642.808 292.19 640.555Z" stroke="black" stroke-linecap="round" stroke-linejoin="round"/>
<path d="M283.611 718.935C283.583 717.233 284.062 715.561 284.988 714.132C285.914 712.704 287.244 711.583 288.809 710.912C290.374 710.241 292.103 710.051 293.777 710.366C295.45 710.681 296.992 711.487 298.206 712.681C299.42 713.874 300.251 715.402 300.594 717.07C300.936 718.737 300.775 720.469 300.13 722.044C299.485 723.619 298.385 724.967 296.971 725.916C295.557 726.865 293.893 727.371 292.19 727.372C291.073 727.381 289.965 727.17 288.929 726.751C287.893 726.332 286.949 725.713 286.152 724.93C285.356 724.146 284.721 723.214 284.285 722.185C283.849 721.157 283.62 720.052 283.611 718.935Z" stroke="black" stroke-linecap="round" stroke-linejoin="round"/>
<path d="M378.392 664.289C383.452 671.781 391.717 676.542 400.192 680.042C408.666 683.543 417.579 685.731 425.896 689.512C434.214 693.292 442.093 698.876 446.138 707.015" stroke="black" stroke-linecap="round" stroke-linejoin="round"/>
<path d="M389.528 582.601C383.978 601.977 381.859 625.187 390.106 645.613" stroke="black" stroke-linecap="round" stroke-linejoin="round"/>
<path d="M296.515 576.772C347.085 589.393 400.543 582.774 446.506 558.201" stroke="black" stroke-linecap="round" stroke-linejoin="round"/>
<path d="M470.687 554.315C468.376 560.022 469.882 566.69 473.209 571.819C476.823 576.86 481.348 581.182 486.551 584.561C493.555 589.55 501.12 594.276 509.699 595.063C514.865 595.518 521.238 596.131 522.517 591.16C523.252 588.395 522.062 582.969 520.888 580.343C516.633 570.926 510.697 561.859 501.925 556.223C497.335 553.214 492.039 551.454 486.56 551.12C481.081 550.785 475.609 551.887 470.687 554.315Z" fill="#D6D6D6"/>
<path d="M490.159 533.994C481.81 559.368 470.977 583.858 457.818 607.106C453.23 615.157 448.292 623.174 441.446 629.475C434.599 635.776 410.225 643.478 401.803 642.795C381.491 645.823 372.176 645.106 362.37 647.819C345.298 652.562 356.54 664.149 363.719 663.817C371.318 663.484 405.2 661.384 403.431 662.697C419.838 676.699 428.506 678.17 442.531 688.427C448.905 679.552 457.467 672.463 465.452 664.954C491.174 640.492 511.997 611.354 526.807 579.1C523.456 570.793 518.153 563.414 511.346 557.589C504.394 551.865 495.219 548.504 490.159 533.994Z" fill="#FFB2AD"/>
<path d="M474.084 627.742C468.183 619.271 455.471 616.82 451.006 617.013C448.519 618.395 445.56 623.419 444.229 626.114C448.204 625.537 463.228 630.263 467.64 639.242C467.991 635.111 470.81 631.295 474.084 627.742Z" fill="#945848"/>
<path d="M474.207 627.392C471.317 629.066 469.128 631.726 468.043 634.884C466.997 638.015 466.581 641.322 466.817 644.615C466.847 647.323 467.444 649.994 468.568 652.457C469.128 653.709 469.951 654.826 470.982 655.733C472.012 656.639 473.225 657.312 474.539 657.708C476.528 658.056 478.575 657.783 480.402 656.924C482.229 656.066 483.747 654.665 484.748 652.912C486.63 649.379 487.353 645.344 486.814 641.377C486.697 637.579 485.406 633.911 483.119 630.875C480.58 627.935 476.378 626.237 474.207 627.392Z" fill="white" stroke="#945848" stroke-miterlimit="10"/>
<path d="M476.974 636.459C477.432 639.516 477.724 642.595 477.849 645.683L477.096 645.403C479.029 643.165 481.087 641.038 483.26 639.032C481.323 641.733 479.242 644.327 477.026 646.803C476.834 643.358 476.834 639.904 477.026 636.459H476.974Z" fill="black"/>
<path d="M472.368 627.025C470.786 627.955 469.427 629.221 468.386 630.733C467.345 632.245 466.649 633.966 466.345 635.776" stroke="black" stroke-linecap="round" stroke-linejoin="round"/>
<path d="M369.479 649.674C369.493 652.416 369.352 655.157 369.059 657.883C368.569 658.776 361.022 659.633 357.555 658.408C356.873 658.22 356.269 657.817 355.834 657.259C355.398 656.701 355.155 656.017 355.139 655.31C355.267 654.687 355.549 654.107 355.959 653.621C356.368 653.135 356.893 652.759 357.485 652.527C361.172 650.563 365.303 649.581 369.479 649.674Z" stroke="black" stroke-miterlimit="10"/>
<path d="M562.755 501.053C562.23 486.577 561.687 471.962 557.905 457.959C554.986 448.182 551.291 438.653 546.856 429.464C540.587 415.554 534.313 401.633 528.033 387.7C522.499 375.448 516.931 363.073 513.639 350.051C510.347 337.028 509.279 323.358 503.746 311.106C498.213 298.853 471.93 283.1 456.469 275.451C456.469 275.451 416.564 395.717 455.419 458.764C459.008 464.575 479.53 490.568 485.816 488.993C483.872 494.819 483.226 501 483.925 507.101C484.624 513.203 486.65 519.078 489.861 524.315C471.23 541.205 469.444 560.914 469.444 560.914C469.654 559.127 470.393 557.443 471.566 556.077C472.739 554.711 474.292 553.726 476.028 553.248C479.547 552.32 483.254 552.375 486.744 553.405C495.693 555.64 503.82 560.378 510.171 567.065C516.523 573.752 520.836 582.11 522.604 591.16C531.85 571.311 554.7 554.543 561.004 530.581C563.438 520.989 563.105 510.942 562.755 501.053Z" fill="white"/>
<path d="M485.833 487.347C493.888 471.439 505.757 457.771 520.38 447.562" stroke="black" stroke-linecap="round" stroke-linejoin="round"/>
<path d="M489.844 524.315C508.008 515.973 527.392 510.595 547.259 508.386" stroke="black" stroke-linecap="round" stroke-linejoin="round"/>
<path d="M528.383 387.875C510.18 401.083 496.682 419.765 489.861 441.191" stroke="black" stroke-linecap="round" stroke-linejoin="round"/>
<path d="M554.893 452.235C537.303 459.954 522.424 472.755 512.169 488.993" stroke="black" stroke-linecap="round" stroke-linejoin="round"/>
<path d="M539.378 565.64C534.35 554.602 525.985 545.419 515.46 539.385C504.954 533.399 494.868 532.734 482.786 533.942" stroke="black" stroke-linecap="round" stroke-linejoin="round"/>
<path d="M458.973 370.81C453.156 405.767 453.268 441.453 459.306 476.373" stroke="black" stroke-linecap="round" stroke-linejoin="round"/>
<path d="M403.361 662.679C427.753 682.86 451.216 692.977 463.053 694.745" stroke="black" stroke-linecap="round" stroke-linejoin="round"/>
<path d="M277.166 244.785C270.162 272.563 260.304 308.025 256.89 336.468C253.475 364.911 255.139 370.757 248.345 402.386C241.691 433.717 237.419 447.545 227.333 472.172C224.093 480.048 216.284 497.447 215.076 505.831C212.152 524.997 227.946 559.251 232.586 578.085C240.22 608.926 241.166 622.929 251.689 652.93C267.571 698.246 266.783 776.626 255.734 823.885C211.153 822.03 169.129 839.008 125.337 834.632C116.057 770.903 124.794 653.437 160.83 599.719C173.437 580.938 190.089 563.33 193.556 541.083C196.147 524.49 190.912 507.826 187.095 491.443C174.26 436.482 177.079 379.281 179.968 322.955C180.598 310.86 181.369 298.241 187.603 287.808C196.078 273.596 212.765 266.454 228.734 261.553C244.703 256.652 261.705 252.522 277.166 244.785Z" fill="white"/>
<path d="M238.031 258.403C225.777 278.736 215.794 300.354 208.264 322.868L232.568 320.277C232.568 320.277 208.352 333.055 207.687 335.663C224.846 389.241 227.438 453.671 214.48 508.386" stroke="black" stroke-linecap="round" stroke-linejoin="round"/>
<path d="M135.388 519.589C132.972 528.673 138.172 538.475 145.894 544.006C153.616 549.537 163.404 551.55 172.825 552.565C178.336 553.059 183.886 552.219 189.004 550.115C194.554 548.119 196.13 541.59 196.551 535.797C196.988 529.461 189.196 523.229 183.996 519.449C168.062 507.861 152.881 510.102 135.388 519.589Z" fill="#D6D6D6"/>
<path d="M193.941 526.345C191.14 547.454 182.175 569.438 180.704 591.108C170.416 591.55 160.275 593.722 150.709 597.531C148.258 576.072 145.8 554.607 143.337 533.136C142.702 529.141 142.608 525.079 143.057 521.059C143.286 519.036 143.917 517.079 144.912 515.303C145.907 513.526 147.247 511.966 148.853 510.714C153.651 507.214 160.287 507.949 165.978 509.612C176.396 512.71 181.527 516.333 193.941 526.345Z" fill="#FFB2AD"/>
<path d="M177.657 566.62C178.733 569.695 180.902 572.268 183.751 573.849C186.585 575.41 189.224 577.302 191.613 579.485C194.344 582.426 195.57 586.382 196.726 590.197L203.852 613.915C204.745 616.89 205.463 620.601 203.134 622.666C202.17 623.382 201.007 623.781 199.806 623.809C198.605 623.838 197.425 623.493 196.428 622.824C194.471 621.449 192.888 619.608 191.823 617.468C187.818 610.066 184.467 602.329 181.807 594.346C178.76 586.102 175.714 577.35 177.657 566.62Z" fill="#FFB2AD"/>
<path d="M147.574 574.514C151.076 581.866 148.275 590.495 149.325 598.529C150.481 607.771 156.644 615.945 157.257 625.239C159.52 619.305 163.334 614.086 168.302 610.127C173.27 606.167 179.209 603.613 185.501 602.73C182.816 589.427 180.143 576.125 177.481 562.822C177.411 561.995 177.03 561.225 176.413 560.669C176.034 560.463 175.617 560.332 175.188 560.284C163.824 558.446 151.637 564.187 147.574 574.514Z" fill="#FFB2AD"/>
<path d="M200.543 611.867C201.934 614.061 202.847 616.524 203.222 619.095C203.484 619.751 203.523 620.475 203.333 621.155C203.143 621.835 202.735 622.433 202.171 622.859C201.519 623.163 200.799 623.294 200.081 623.239C199.364 623.183 198.672 622.944 198.074 622.544C197.032 621.785 196.186 620.789 195.605 619.638L192.506 614.562C195.26 613.905 197.95 613.003 200.543 611.867Z" stroke="black" stroke-linecap="round" stroke-linejoin="round"/>
<path d="M183.75 603.01C181.064 595.909 177.99 588.961 174.54 582.198" stroke="black" stroke-linecap="round" stroke-linejoin="round"/>
<path d="M209.263 268.992C185.379 275.854 165.488 304.909 159.464 328.662C153.441 352.414 154.089 377.338 149.641 401.423C148.328 408.424 146.472 415.706 142.024 421.395C139.223 424.983 135.23 428.396 135.581 432.982C136.071 439.265 144.949 444.359 141.989 449.943C140.676 452.411 137.489 453.443 135.931 455.701C133.269 459.674 136.526 464.715 138.19 469.161C144.598 486.262 131.991 494.296 134.793 528.358C141.692 519.396 157.556 511.59 169.41 514.163C175.272 515.476 180.759 518.102 185.457 521.843C190.155 525.585 193.943 530.344 196.533 535.762C191.963 478.648 201.103 420.694 196.533 363.563C194.379 336.38 201.138 306.135 209.263 268.992Z" fill="white"/>
<path d="M142.199 445.532C150.814 457.154 162.738 461.285 181.089 460.532" stroke="black" stroke-linecap="round" stroke-linejoin="round"/>
<path d="M136.631 465.433C144.703 478.438 165.943 478.788 181.089 475.62" stroke="black" stroke-linecap="round" stroke-linejoin="round"/>
<path d="M139.835 481.764C150.691 485.79 164.349 487.12 181.088 480.801" stroke="black" stroke-linecap="round" stroke-linejoin="round"/>
<path d="M189.389 503.363C181.155 498.732 171.936 496.131 162.496 495.775C153.056 495.419 143.666 497.318 135.107 501.315" stroke="black" stroke-linecap="round" stroke-linejoin="round"/>
<path d="M147.522 428.238C151.053 433.539 155.612 438.076 160.93 441.582C166.248 445.088 172.216 447.491 178.48 448.647" stroke="black" stroke-linecap="round" stroke-linejoin="round"/>
<path d="M172.019 337.553C176.326 370.04 177.272 408.284 179.233 440.981C181.194 473.677 196.427 479.698 196.427 536.829" stroke="black" stroke-linecap="round" stroke-linejoin="round"/>
<path d="M157.065 624.837C159.529 619.372 163.253 614.567 167.93 610.816C172.608 607.065 178.107 604.474 183.978 603.255" stroke="black" stroke-linecap="round" stroke-linejoin="round"/>
<path d="M195.745 589.847C200 585.857 200.841 579.573 201.313 573.814C201.885 566.638 202.265 559.456 202.452 552.267" stroke="black" stroke-linecap="round" stroke-linejoin="round"/>
<path d="M179.408 377.899C179.688 390.588 179.513 403.366 177.044 415.811C173.98 431.231 167.414 445.899 165.19 461.46C164.699 463.781 164.796 466.187 165.47 468.461C166.064 469.825 166.955 471.039 168.079 472.015C169.203 472.99 170.531 473.701 171.966 474.097C174.871 474.884 177.923 474.956 180.861 474.307C181.945 474.005 183.085 473.963 184.188 474.185C185.256 474.535 186.132 475.743 185.659 476.74C185.423 477.079 185.119 477.364 184.766 477.578C184.413 477.792 184.02 477.93 183.61 477.983C180.066 478.98 176.341 479.154 172.719 478.491C170.922 478.154 169.215 477.446 167.707 476.413C166.2 475.379 164.925 474.042 163.964 472.487C162.003 468.986 162.213 464.855 162.581 460.917C165.435 432.912 177.219 405.571 174.838 377.461C176.338 377.793 177.872 377.94 179.408 377.899Z" fill="#9C9C9C"/>
<path d="M168.166 459.709C169.457 459.46 170.786 459.471 172.072 459.741C173.359 460.012 174.579 460.537 175.661 461.285C177.784 462.766 179.693 464.533 181.334 466.536C182.016 467.109 182.56 467.829 182.927 468.64C183.294 469.452 183.473 470.336 183.453 471.227C183.149 472.113 182.602 472.896 181.874 473.487C181.147 474.078 180.268 474.453 179.338 474.57C177.449 475.005 175.49 475.031 173.59 474.648C171.691 474.265 169.896 473.48 168.324 472.347C167.226 471.588 166.295 470.612 165.587 469.481C164.88 468.349 164.411 467.085 164.209 465.766C164.035 464.45 164.339 463.115 165.065 462.004C165.791 460.893 166.891 460.079 168.166 459.709Z" fill="#03004F"/>
<path d="M214.971 377.706C212.607 390.186 210.663 402.823 211.048 415.496C211.521 431.249 215.566 446.722 215.198 462.44C215.296 464.816 214.802 467.18 213.762 469.319C212.954 470.578 211.874 471.64 210.601 472.427C209.329 473.215 207.896 473.707 206.408 473.87C203.434 474.159 200.434 473.739 197.653 472.644C196.633 472.158 195.507 471.935 194.379 471.997C193.258 472.154 192.208 473.205 192.505 474.272C192.676 474.637 192.919 474.964 193.22 475.232C193.521 475.5 193.874 475.703 194.256 475.83C197.595 477.376 201.241 478.143 204.92 478.071C206.752 478.021 208.554 477.594 210.214 476.817C211.874 476.04 213.356 474.929 214.568 473.555C217.072 470.474 217.597 466.308 217.842 462.37C219.593 434.225 212.589 405.396 219.488 378.039C217.975 378.11 216.458 377.999 214.971 377.706Z" fill="#9C9C9C"/>
<path d="M212.537 460.235C211.306 459.78 209.996 459.577 208.684 459.637C207.373 459.697 206.087 460.019 204.903 460.585C202.552 461.724 200.372 463.185 198.424 464.925C197.023 466.063 195.517 467.446 195.552 469.231C195.587 471.017 197.303 472.452 199.054 473.17C200.848 473.901 202.778 474.24 204.714 474.164C206.65 474.089 208.547 473.601 210.278 472.732C211.49 472.165 212.572 471.354 213.458 470.352C214.343 469.349 215.013 468.175 215.426 466.903C215.839 465.631 215.774 464.251 215.242 463.024C214.71 461.796 213.748 460.804 212.537 460.235Z" fill="#03004F"/>
<path d="M215.706 313.223C214.604 312.428 213.757 311.329 213.269 310.061C212.781 308.793 212.673 307.411 212.957 306.082C219.208 284.658 248.327 261.851 264.874 250.071C255.611 239.342 207.284 286.076 201.225 307.132C201.012 307.861 200.632 308.529 200.115 309.085C199.599 309.641 198.96 310.069 198.249 310.335C183.803 315.814 177.937 327.139 175.013 339.339C171.948 352.169 173.367 365.594 174.82 378.721C173.699 378.914 181.404 379.911 181.404 379.911C182.717 372.91 182.227 365.734 182.542 358.627C182.857 351.521 184.048 344.152 188.285 338.393C192.995 331.952 203.449 328.189 210.348 332.635C211.602 333.503 212.673 334.609 213.5 335.89C219.401 344.537 217.667 353.814 215.584 362.653C214.235 368.377 212.729 374.188 213.062 380.069C212.922 380.507 222.955 382.677 222.955 382.677C224.986 369.164 225.617 358.382 227.648 344.887C228.261 340.861 228.856 333.072 227.893 329.134C226.229 322.308 222.57 319.192 215.706 313.223ZM217.93 330.552C216.758 330.318 215.648 329.841 214.673 329.152C207.669 325.073 198.161 325.896 190.527 328.731C190.227 328.857 189.893 328.876 189.581 328.787C189.268 328.698 188.995 328.506 188.806 328.242C188.617 327.978 188.523 327.657 188.54 327.333C188.557 327.008 188.683 326.699 188.898 326.456C192.082 322.756 195.738 319.49 199.772 316.742C201.575 315.433 203.76 314.757 205.988 314.816C207.863 315.186 209.591 316.092 210.961 317.424C214.217 320.12 217.155 323.18 219.716 326.544C220.304 327.156 220.637 327.97 220.644 328.819C220.48 329.389 220.114 329.879 219.615 330.198C219.115 330.517 218.516 330.643 217.93 330.552Z" fill="#FE7803"/>
<path d="M427.227 369.444C429.661 349.193 432.113 328.714 429.661 308.48C427.21 288.246 420.363 266.909 398.493 254.43C413.762 253.729 425.459 260.538 431.342 269.675C437.225 278.812 439.414 289.769 440.587 300.516C443.156 324.144 441.502 348.04 435.702 371.09C432.837 370.775 430.002 370.224 427.227 369.444Z" fill="#FE7803"/>
<path d="M448.442 394.205C451.327 382.202 445.609 370.537 435.67 368.15C425.731 365.763 415.335 373.558 412.45 385.561C409.565 397.564 415.284 409.229 425.223 411.616C435.161 414.003 445.557 406.208 448.442 394.205Z" fill="black"/>
<path d="M416.914 386.213C419.086 376.533 426.527 369.934 433.514 371.457C440.5 372.98 444.405 382.064 442.269 391.726C440.133 401.388 432.656 408.004 425.669 406.482C418.683 404.959 414.743 395.875 416.914 386.213Z" fill="#9C9C9C"/>
<path d="M435.805 386.836C437.603 379.364 434.023 372.095 427.808 370.6C421.594 369.105 415.097 373.951 413.299 381.422C411.5 388.894 415.08 396.163 421.295 397.658C427.51 399.153 434.006 394.308 435.805 386.836Z" fill="black"/>
<path d="M416.179 381.889C417.527 375.886 422.167 371.772 426.545 372.718C430.922 373.663 433.356 379.334 432.008 385.355C430.66 391.376 426.002 395.472 421.642 394.527C417.282 393.582 414.83 387.911 416.179 381.889Z" fill="#9C9C9C"/>
</g>
<path d="M503.466 119.881C506.125 119.881 508.281 117.726 508.281 115.067C508.281 112.409 506.125 110.254 503.466 110.254C500.806 110.254 498.65 112.409 498.65 115.067C498.65 117.726 500.806 119.881 503.466 119.881Z" fill="white"/>
<path d="M102.311 401.231C104.971 401.231 107.127 399.076 107.127 396.417C107.127 393.759 104.971 391.604 102.311 391.604C99.652 391.604 97.4961 393.759 97.4961 396.417C97.4961 399.076 99.652 401.231 102.311 401.231Z" fill="white"/>
<path d="M1.751 651.967C2.71806 651.967 3.50201 651.183 3.50201 650.217C3.50201 649.25 2.71806 648.466 1.751 648.466C0.783951 648.466 0 649.25 0 650.217C0 651.183 0.783951 651.967 1.751 651.967Z" fill="white"/>
<path d="M196.235 62.5922C197.202 62.5922 197.986 61.8085 197.986 60.8418C197.986 59.8751 197.202 59.0915 196.235 59.0915C195.268 59.0915 194.484 59.8751 194.484 60.8418C194.484 61.8085 195.268 62.5922 196.235 62.5922Z" fill="white"/>
<path d="M148.082 214.994C149.049 214.994 149.833 214.211 149.833 213.244C149.833 212.277 149.049 211.494 148.082 211.494C147.115 211.494 146.331 212.277 146.331 213.244C146.331 214.211 147.115 214.994 148.082 214.994Z" fill="white"/>
<path d="M511.626 733.743C512.593 733.743 513.377 732.959 513.377 731.992C513.377 731.026 512.593 730.242 511.626 730.242C510.659 730.242 509.875 731.026 509.875 731.992C509.875 732.959 510.659 733.743 511.626 733.743Z" fill="white"/>
<path d="M498.65 176.889C499.617 176.889 500.401 176.106 500.401 175.139C500.401 174.172 499.617 173.389 498.65 173.389C497.683 173.389 496.899 174.172 496.899 175.139C496.899 176.106 497.683 176.889 498.65 176.889Z" fill="white"/>
<path d="M104.063 18.3786C105.03 18.3786 105.814 17.5949 105.814 16.6282C105.814 15.6616 105.03 14.8779 104.063 14.8779C103.095 14.8779 102.312 15.6616 102.312 16.6282C102.312 17.5949 103.095 18.3786 104.063 18.3786Z" fill="white"/>
<path d="M142.725 97.2139C142.725 97.2139 141.692 106.806 137.472 108.224C141.394 110.587 143.267 119.233 143.267 119.233C143.267 119.233 144.546 109.764 148.1 108.924C144.633 106.631 142.725 97.2139 142.725 97.2139Z" fill="white"/>
<path d="M539.571 639.207C539.571 639.207 538.538 648.799 534.318 650.217C538.241 652.58 540.114 661.226 540.114 661.226C540.114 661.226 541.393 651.739 544.947 650.917C541.48 648.624 539.571 639.207 539.571 639.207Z" fill="white"/>
<path d="M19.6466 761.328C19.6466 761.328 18.6135 770.903 14.3936 772.338C18.3158 774.683 20.1894 783.33 20.1894 783.33C20.1894 783.33 21.4676 773.861 25.0222 773.02C21.5552 770.727 19.6466 761.328 19.6466 761.328Z" fill="white"/>
<path d="M447.083 14.4053C448.589 7.15891 450.585 -7.62939e-06 450.585 -7.62939e-06L454.087 13.1626L468.095 10.7471L457.747 20.7941C457.747 20.7941 463.42 32.6614 465.031 35.9695L452.529 26.6577C449.059 30.3143 445.306 33.6913 441.305 36.7571C441.827 31.758 442.926 26.836 444.579 22.0893L429.573 17.9585C435.141 16.6282 440.902 15.298 447.083 14.4053Z" fill="white"/>
<path d="M106.216 561.264C107.092 556.783 108.247 552.338 108.247 552.338L110.279 560.494L118.508 559.006L112.38 565.22L116.687 574.619L109.298 568.843C107.254 571.098 105.035 573.187 102.662 575.092C102.968 572.006 103.62 568.965 104.605 566.025L95.7451 563.47C99.1421 562.647 102.557 561.807 106.216 561.264Z" fill="white"/>
<path d="M519.785 271.233C519.782 272.845 519.3 274.421 518.401 275.76C517.503 277.099 516.227 278.141 514.736 278.756C513.245 279.371 511.605 279.53 510.023 279.213C508.441 278.896 506.989 278.118 505.85 276.977C504.71 275.835 503.935 274.382 503.621 272.8C503.308 271.218 503.47 269.579 504.089 268.09C504.707 266.6 505.753 265.328 507.094 264.432C508.436 263.537 510.012 263.059 511.625 263.059C512.699 263.056 513.763 263.266 514.755 263.677C515.747 264.087 516.648 264.689 517.407 265.449C518.165 266.209 518.766 267.111 519.174 268.103C519.582 269.096 519.79 270.16 519.785 271.233Z" stroke="white" stroke-miterlimit="10"/>
<path d="M67.6587 698.141C72.1652 698.141 75.8184 694.489 75.8184 689.984C75.8184 685.48 72.1652 681.828 67.6587 681.828C63.1522 681.828 59.499 685.48 59.499 689.984C59.499 694.489 63.1522 698.141 67.6587 698.141Z" stroke="white" stroke-miterlimit="10"/>
</g>
<defs>
<clipPath id="clip0_224_2580">
<rect width="563" height="809" fill="white"/>
</clipPath>
</defs>
</svg>
