<svg width="24" height="24" viewBox="0 0 24 24" fill="none" xmlns="http://www.w3.org/2000/svg">
<path opacity="0.3" d="M15.45 6C15.4032 4.94955 14.9446 3.95979 14.1736 3.24488C13.4025 2.52996 12.3809 2.14741 11.33 2.18H6.99997C5.9422 2.13662 4.91037 2.51434 4.1306 3.23038C3.35083 3.94641 2.88672 4.94237 2.83997 6V18C2.88414 19.0594 3.34714 20.0579 4.12719 20.7761C4.90725 21.4943 5.94054 21.8733 6.99997 21.83H11.37C12.4158 21.8519 13.4285 21.4632 14.1912 20.7472C14.9539 20.0313 15.4057 19.0451 15.45 18V6Z" fill="white"/>
<path d="M8.68957 11.25H18.5996L16.9996 9.61C16.8591 9.46938 16.7802 9.27875 16.7802 9.08C16.7802 8.88125 16.8591 8.69063 16.9996 8.55C17.0685 8.47924 17.1509 8.42301 17.242 8.38461C17.333 8.34621 17.4308 8.32643 17.5296 8.32643C17.6284 8.32643 17.7262 8.34621 17.8172 8.38461C17.9082 8.42301 17.9906 8.47924 18.0596 8.55L20.9896 11.47C21.13 11.6106 21.2089 11.8013 21.2089 12C21.2089 12.1988 21.13 12.3894 20.9896 12.53L17.9996 15.45C17.9307 15.5206 17.8482 15.5765 17.7571 15.6143C17.666 15.6521 17.5682 15.671 17.4696 15.67C17.371 15.6705 17.2734 15.6512 17.1824 15.6135C17.0914 15.5757 17.0088 15.5201 16.9396 15.45C16.7991 15.3094 16.7202 15.1188 16.7202 14.92C16.7202 14.7213 16.7991 14.5306 16.9396 14.39L18.5896 12.75H8.68957C8.49066 12.75 8.2999 12.671 8.15925 12.5303C8.01859 12.3897 7.93958 12.1989 7.93958 12C7.93958 11.8011 8.01859 11.6103 8.15925 11.4697C8.2999 11.329 8.49066 11.25 8.68957 11.25Z" fill="white"/>
</svg>
