<svg width="30" height="30" viewBox="0 0 30 30" fill="none" xmlns="http://www.w3.org/2000/svg">
<path d="M6.25 5V12.9163V12.885V25V5ZM9.375 16.875H13.87C13.9933 16.6358 14.1267 16.4162 14.27 16.2162C14.4117 16.0162 14.5638 15.8192 14.7262 15.625H9.375V16.875ZM9.375 21.875H12.9838C12.9429 21.6667 12.915 21.4583 12.9 21.25C12.885 21.0417 12.8821 20.8333 12.8912 20.625H9.375V21.875ZM7.02 26.25C6.44417 26.25 5.96375 26.0575 5.57875 25.6725C5.19375 25.2875 5.00083 24.8071 5 24.2313V5.76875C5 5.19375 5.19292 4.71375 5.57875 4.32875C5.96458 3.94375 6.445 3.75083 7.02 3.75H16.875L22.5 9.375V13.15C22.2967 13.0783 22.0908 13.0279 21.8825 12.9988C21.6742 12.9696 21.4633 12.9421 21.25 12.9163V10H16.25V5H7.02C6.8275 5 6.65083 5.08 6.49 5.24C6.32917 5.4 6.24917 5.57625 6.25 5.76875V24.2313C6.25 24.4229 6.33 24.5992 6.49 24.76C6.65 24.9208 6.82625 25.0008 7.01875 25H14.2387C14.3954 25.2433 14.5696 25.4667 14.7612 25.67C14.9546 25.8725 15.1567 26.0658 15.3675 26.25H7.02ZM20.625 24.135C21.6125 24.135 22.4442 23.7967 23.12 23.12C23.7967 22.4442 24.135 21.6125 24.135 20.625C24.135 19.6375 23.7967 18.8058 23.12 18.13C22.4433 17.4542 21.6117 17.1158 20.625 17.115C19.6383 17.1142 18.8067 17.4525 18.13 18.13C17.4533 18.8075 17.115 19.6392 17.115 20.625C17.115 21.6108 17.4533 22.4425 18.13 23.12C18.8067 23.7975 19.6383 24.1358 20.625 24.135ZM27 27.86L23.5287 24.39C23.1229 24.7133 22.6729 24.96 22.1787 25.13C21.6846 25.3 21.1667 25.385 20.625 25.385C19.3033 25.385 18.1796 24.9221 17.2538 23.9963C16.3279 23.0704 15.8654 21.9467 15.8663 20.625C15.8671 19.3033 16.3296 18.1796 17.2538 17.2538C18.1779 16.3279 19.3017 15.8654 20.625 15.8663C21.9483 15.8671 23.0721 16.3296 23.9963 17.2538C24.9204 18.1779 25.3829 19.3017 25.3837 20.625C25.3837 21.1667 25.2992 21.6846 25.13 22.1787C24.9608 22.6729 24.7137 23.1229 24.3888 23.5287L27.8625 27L27 27.86Z" fill="white"/>
</svg>
